<svg width="158" height="51" viewBox="0 0 158 51" fill="none" xmlns="http://www.w3.org/2000/svg">
<g clip-path="url(#clip0)">
<path d="M70.9756 27.5639C69.5878 24.2399 66.6418 21.8817 63.0947 21.2563C59.5477 20.6308 55.9728 21.8392 53.5322 24.4882L47.6503 30.8711C46.6744 31.93 46.078 33.2472 45.9256 34.6792C45.7731 36.1114 46.0792 37.5242 46.8105 38.7656C47.5426 40.0061 48.6311 40.9578 49.9584 41.5178C51.2857 42.0778 52.7273 42.1928 54.127 41.8509L54.2208 41.8276C57.7376 40.9959 61.4703 41.6674 64.4776 43.676C65.2534 44.194 66.1114 44.538 67.0105 44.6966C67.4993 44.7828 68.0008 44.814 68.5076 44.7889C69.9463 44.7169 71.2947 44.195 72.4073 43.2793C73.5192 42.3639 74.2905 41.1408 74.6374 39.7425C74.9844 38.3442 74.8744 36.9027 74.3197 35.5733L70.9756 27.5639Z" fill="#05A78E"/>
<path d="M50.1633 23.8844C51.6285 23.5992 52.8661 22.6772 53.6479 21.2879C54.392 19.966 54.632 18.3677 54.3233 16.7872C54.0142 15.2075 53.1904 13.8173 52.0036 12.8721C50.7569 11.8795 49.2636 11.4903 47.8005 11.7769C44.8572 12.3506 42.9917 15.5337 43.642 18.8743C44.163 21.5338 46.1251 23.5006 48.3891 23.8998C48.9672 24.0018 49.565 24.0014 50.1633 23.8844Z" fill="#05A78E"/>
<path d="M60.1082 19.8248C63.554 20.4324 66.9206 17.7328 67.6128 13.807C68.3052 9.88016 66.0651 6.1913 62.6193 5.58372C59.1739 4.97619 55.8075 7.67648 55.1151 11.6033C54.4229 15.5291 56.6628 19.2173 60.1082 19.8248Z" fill="#05A78E"/>
<path d="M70.5921 23.477L70.5924 23.477C71.0914 23.7464 71.6173 23.9258 72.1558 24.0208C74.6687 24.4639 77.4402 23.0667 78.8703 20.4205C79.6938 18.8974 79.9601 17.1803 79.6201 15.5858C79.2644 13.9167 78.2957 12.5799 76.8919 11.8213C75.4879 11.0627 73.8386 10.9851 72.2475 11.6021C70.7276 12.1915 69.4373 13.3553 68.6145 14.8785C66.8782 18.0918 67.7654 21.9491 70.5921 23.477V23.477Z" fill="#05A78E"/>
<path d="M83.8988 24.9665L83.898 24.9654C81.8313 22.7911 78.1433 22.9252 75.6761 25.2653C73.2106 27.607 72.8836 31.282 74.9466 33.457C75.6989 34.2506 76.6673 34.7373 77.7137 34.9218C79.5375 35.2434 81.5992 34.6471 83.1695 33.1589C85.6346 30.8171 85.962 27.1423 83.8988 24.9665V24.9665Z" fill="#05A78E"/>
</g>
<path d="M13.0519 32.7184C13.0519 33.5968 12.8503 34.4032 12.4471 35.1376C12.0439 35.8576 11.4247 36.4408 10.5895 36.8872C9.75432 37.3336 8.71752 37.5568 7.47912 37.5568H5.18952V43H1.49592V27.8368H7.47912C8.68872 27.8368 9.71112 28.0456 10.5463 28.4632C11.3815 28.8808 12.0079 29.4568 12.4255 30.1912C12.8431 30.9256 13.0519 31.768 13.0519 32.7184ZM7.19832 34.6192C7.90392 34.6192 8.42952 34.4536 8.77512 34.1224C9.12072 33.7912 9.29352 33.3232 9.29352 32.7184C9.29352 32.1136 9.12072 31.6456 8.77512 31.3144C8.42952 30.9832 7.90392 30.8176 7.19832 30.8176H5.18952V34.6192H7.19832ZM17.5884 30.796V33.8632H22.5348V36.7144H17.5884V40.0408H23.1828V43H13.8948V27.8368H23.1828V30.796H17.5884ZM35.4088 27.8368V30.796H31.3912V43H27.6976V30.796H23.68V27.8368H35.4088Z" fill="#2D3332"/>
<path d="M91.8214 35.3968C91.8214 33.8992 92.1454 32.5672 92.7934 31.4008C93.4414 30.22 94.3414 29.3056 95.4934 28.6576C96.6598 27.9952 97.9774 27.664 99.4462 27.664C101.246 27.664 102.787 28.1392 104.069 29.0896C105.35 30.04 106.207 31.336 106.639 32.9776H102.578C102.276 32.344 101.844 31.8616 101.282 31.5304C100.735 31.1992 100.109 31.0336 99.403 31.0336C98.2654 31.0336 97.3438 31.4296 96.6382 32.2216C95.9326 33.0136 95.5798 34.072 95.5798 35.3968C95.5798 36.7216 95.9326 37.78 96.6382 38.572C97.3438 39.364 98.2654 39.76 99.403 39.76C100.109 39.76 100.735 39.5944 101.282 39.2632C101.844 38.932 102.276 38.4496 102.578 37.816H106.639C106.207 39.4576 105.35 40.7536 104.069 41.704C102.787 42.64 101.246 43.108 99.4462 43.108C97.9774 43.108 96.6598 42.784 95.4934 42.136C94.3414 41.4736 93.4414 40.5592 92.7934 39.3928C92.1454 38.2264 91.8214 36.8944 91.8214 35.3968ZM111.515 40.1488H116.353V43H107.821V27.8368H111.515V40.1488ZM120.728 27.8368V43H117.035V27.8368H120.728ZM135.89 43H132.196L126.019 33.6472V43H122.325V27.8368H126.019L132.196 37.2328V27.8368H135.89V43ZM141.181 27.8368V43H137.487V27.8368H141.181ZM142.151 35.3968C142.151 33.8992 142.475 32.5672 143.123 31.4008C143.771 30.22 144.671 29.3056 145.823 28.6576C146.989 27.9952 148.307 27.664 149.776 27.664C151.576 27.664 153.117 28.1392 154.398 29.0896C155.68 30.04 156.537 31.336 156.969 32.9776H152.908C152.605 32.344 152.173 31.8616 151.612 31.5304C151.065 31.1992 150.438 31.0336 149.733 31.0336C148.595 31.0336 147.673 31.4296 146.968 32.2216C146.262 33.0136 145.909 34.072 145.909 35.3968C145.909 36.7216 146.262 37.78 146.968 38.572C147.673 39.364 148.595 39.76 149.733 39.76C150.438 39.76 151.065 39.5944 151.612 39.2632C152.173 38.932 152.605 38.4496 152.908 37.816H156.969C156.537 39.4576 155.68 40.7536 154.398 41.704C153.117 42.64 151.576 43.108 149.776 43.108C148.307 43.108 146.989 42.784 145.823 42.136C144.671 41.4736 143.771 40.5592 143.123 39.3928C142.475 38.2264 142.151 36.8944 142.151 35.3968Z" fill="#2D3332"/>
<defs>
<clipPath id="clip0">
<rect width="43.2" height="43.2" fill="white" transform="translate(46.5016) rotate(10)"/>
</clipPath>
</defs>
</svg>
